<svg width="750" height="132" viewBox="0 0 750 132" fill="none" xmlns="http://www.w3.org/2000/svg">
<rect width="750" height="132" fill="white"/>
<path d="M81 100.167C99.8697 100.167 115.167 84.8698 115.167 66C115.167 47.1303 99.8697 31.8334 81 31.8334C62.1303 31.8334 46.8333 47.1303 46.8333 66C46.8333 84.8698 62.1303 100.167 81 100.167Z" fill="#33404F"/>
<path d="M80.1483 78.2827C80.5388 78.9172 81.4612 78.9172 81.8516 78.2827L93.7288 58.9824C94.1388 58.3161 93.6594 57.4583 92.8771 57.4583L69.1229 57.4583C68.3406 57.4583 67.8612 58.3161 68.2712 58.9824L80.1483 78.2827Z" fill="white"/>
<path d="M143.611 53.126C143.772 57.0664 147.039 59.542 152.078 59.542C157.381 59.542 160.647 56.9346 160.647 52.6719C160.647 49.3906 158.816 47.5596 154.568 46.666L152.02 46.124C149.544 45.5967 148.533 44.8496 148.533 43.5459C148.533 41.9346 149.998 40.9092 152.21 40.9092C154.349 40.9092 155.901 42.0225 156.106 43.6924H160.267C160.135 39.9277 156.839 37.3203 152.181 37.3203C147.303 37.3203 144.095 39.9424 144.095 43.9268C144.095 47.1494 145.984 49.1562 149.837 49.9619L152.591 50.5479C155.184 51.1045 156.238 51.8809 156.238 53.2285C156.238 54.8252 154.612 55.9385 152.312 55.9385C149.822 55.9385 148.094 54.8398 147.889 53.126H143.611ZM164.559 59H168.821V49.7275C168.821 47.6328 170.052 46.2119 172.19 46.2119C174.124 46.2119 175.164 47.3691 175.164 49.6104V59H179.427V48.5996C179.427 44.7178 177.361 42.5352 173.89 42.5352C171.517 42.5352 169.759 43.6484 169.012 45.4941H168.748V36.6758H164.559V59ZM190.735 59.3516C195.701 59.3516 198.689 56.2021 198.689 50.9141C198.689 45.6699 195.657 42.4912 190.735 42.4912C185.813 42.4912 182.781 45.6846 182.781 50.9141C182.781 56.2021 185.77 59.3516 190.735 59.3516ZM190.735 55.8652C188.45 55.8652 187.161 54.0635 187.161 50.9141C187.161 47.8086 188.465 45.9775 190.735 45.9775C192.991 45.9775 194.31 47.8086 194.31 50.9141C194.31 54.0488 193.006 55.8652 190.735 55.8652ZM211.507 42.5791C209.28 42.5791 207.449 43.6777 206.57 45.4941H206.307V42.8428H202.176V64.3613H206.438V56.5244H206.702C207.493 58.2383 209.266 59.249 211.58 59.249C215.623 59.249 218.099 56.1289 218.099 50.9141C218.099 45.6846 215.594 42.5791 211.507 42.5791ZM210.057 55.6895C207.801 55.6895 206.395 53.8877 206.395 50.9287C206.395 47.9697 207.801 46.1533 210.071 46.1533C212.342 46.1533 213.719 47.9551 213.719 50.9141C213.719 53.9023 212.356 55.6895 210.057 55.6895ZM230.901 42.5791C228.675 42.5791 226.844 43.6777 225.965 45.4941H225.701V42.8428H221.57V64.3613H225.833V56.5244H226.097C226.888 58.2383 228.66 59.249 230.975 59.249C235.018 59.249 237.493 56.1289 237.493 50.9141C237.493 45.6846 234.988 42.5791 230.901 42.5791ZM229.451 55.6895C227.195 55.6895 225.789 53.8877 225.789 50.9287C225.789 47.9697 227.195 46.1533 229.466 46.1533C231.736 46.1533 233.113 47.9551 233.113 50.9141C233.113 53.9023 231.751 55.6895 229.451 55.6895ZM240.994 59H245.257V42.8428H240.994V59ZM243.133 40.5869C244.656 40.5869 245.652 39.6934 245.652 38.4336C245.652 37.1592 244.656 36.2803 243.133 36.2803C241.595 36.2803 240.613 37.1592 240.613 38.4336C240.613 39.6934 241.595 40.5869 243.133 40.5869ZM249.578 59H253.841V49.6836C253.841 47.5596 255.057 46.168 257.034 46.168C259.056 46.168 260.008 47.3398 260.008 49.5664V59H264.271V48.5557C264.271 44.6885 262.337 42.4912 258.748 42.4912C256.36 42.4912 254.72 43.6191 253.973 45.4355H253.709V42.8428H249.578V59ZM275.594 55.3965C273.279 55.3965 271.961 53.624 271.961 50.7676C271.961 47.9404 273.294 46.1533 275.594 46.1533C277.894 46.1533 279.285 47.9404 279.285 50.7822C279.285 53.624 277.908 55.3965 275.594 55.3965ZM275.535 65.123C280.413 65.123 283.504 62.7354 283.504 58.9414V42.8428H279.373V45.4355H279.109C278.245 43.6631 276.385 42.5791 274.202 42.5791C270.101 42.5791 267.581 45.7725 267.581 50.7822C267.581 55.6455 270.086 58.7656 274.114 58.7656C276.385 58.7656 278.084 57.8574 278.978 56.1582H279.241V59.1465C279.241 60.9629 277.908 62.0176 275.623 62.0176C273.777 62.0176 272.576 61.3877 272.356 60.3916H268.138C268.401 63.2334 271.243 65.123 275.535 65.123Z" fill="#33404F"/>
<path opacity="0.5" d="M156.706 97V81.499H154.311V88.0088H146.351V81.499H143.944V97H146.351V90.2002H154.311V97H156.706ZM171.455 97H174.27L171.509 94.0459C172.357 92.8213 172.798 91.1133 172.798 88.9434V88.3633H170.703V88.8574C170.703 90.501 170.478 91.6074 170.037 92.4346L166.481 88.7393C168.802 87.5146 169.769 86.3008 169.769 84.7109C169.769 82.6484 168.05 81.1875 165.676 81.1875C163.312 81.1875 161.551 82.6914 161.551 84.7324C161.551 85.8604 162.066 86.8379 163.495 88.3203C163.355 88.3848 162.969 88.6104 162.861 88.6641C160.82 89.749 159.854 91.0918 159.854 92.8965C159.854 95.5176 162.002 97.29 165.16 97.29C167.051 97.29 168.845 96.6562 170.112 95.582L171.455 97ZM164.193 89.9746C164.333 89.8994 164.591 89.7812 164.698 89.7383L168.791 94.0781C168.028 94.8516 166.696 95.3457 165.386 95.3457C163.452 95.3457 162.152 94.2822 162.152 92.7139C162.152 91.6182 162.829 90.6836 164.193 89.9746ZM165.289 87.4609C164.129 86.333 163.71 85.6562 163.71 84.8613C163.71 83.7656 164.537 82.9922 165.687 82.9922C166.857 82.9922 167.663 83.7441 167.663 84.8506C167.663 85.8711 167.019 86.6016 165.289 87.4609ZM192.198 97V81.499H189.384L184.442 93.2725H184.26L179.329 81.499H176.515V97H178.749V85.8066H178.899L183.443 96.5488H185.27L189.813 85.8066H189.964V97H192.198ZM205.551 97H207.957V81.499H205.562L201.479 84.3779V86.8379L205.368 84.0879H205.551V97ZM212.34 85.9785V86.0107H214.617V85.9785C214.617 84.3242 215.767 83.207 217.475 83.207C219.075 83.207 220.289 84.2705 220.289 85.6885C220.289 86.8271 219.784 87.6436 217.711 89.8027L212.469 95.2598V97H222.91V94.8408H215.82V94.6582L219.269 91.167C221.868 88.5352 222.663 87.1924 222.663 85.5488C222.663 82.9922 220.493 81.123 217.55 81.123C214.499 81.123 212.34 83.1211 212.34 85.9785ZM231.439 97.376C234.78 97.376 237.047 95.1953 237.047 91.9834C237.047 88.9326 234.974 86.7842 232.03 86.7842C230.559 86.7842 229.463 87.2783 228.754 88.1914H228.571L228.979 83.6475H236.145V81.499H227.1L226.283 90.3721H228.485C229.087 89.373 230.161 88.7822 231.493 88.7822C233.384 88.7822 234.694 90.1035 234.694 92.0479C234.694 93.9814 233.395 95.2598 231.461 95.2598C229.764 95.2598 228.507 94.2607 228.324 92.7568H226.036C226.176 95.4746 228.356 97.376 231.439 97.376ZM240.688 97H243.213L249.959 83.6797V81.499H239.399V83.6367H247.521V83.8086L240.688 97ZM265.911 88.3955L266.749 86.8594L263.924 85.5596L266.749 84.249L265.911 82.6914L263.333 84.5391L263.602 81.3916H261.883L262.151 84.5391L259.573 82.6914L258.735 84.249L261.571 85.5596L258.735 86.8594L259.573 88.3955L262.151 86.5908L261.883 89.6953H263.602L263.333 86.6016L265.911 88.3955ZM276.997 88.3955L277.835 86.8594L275.01 85.5596L277.835 84.249L276.997 82.6914L274.419 84.5391L274.688 81.3916H272.969L273.237 84.5391L270.659 82.6914L269.821 84.249L272.657 85.5596L269.821 86.8594L270.659 88.3955L273.237 86.5908L272.969 89.6953H274.688L274.419 86.6016L276.997 88.3955ZM288.083 88.3955L288.921 86.8594L286.096 85.5596L288.921 84.249L288.083 82.6914L285.505 84.5391L285.773 81.3916H284.055L284.323 84.5391L281.745 82.6914L280.907 84.249L283.743 85.5596L280.907 86.8594L281.745 88.3955L284.323 86.5908L284.055 89.6953H285.773L285.505 86.6016L288.083 88.3955ZM299.169 88.3955L300.007 86.8594L297.182 85.5596L300.007 84.249L299.169 82.6914L296.591 84.5391L296.859 81.3916H295.141L295.409 84.5391L292.831 82.6914L291.993 84.249L294.829 85.5596L291.993 86.8594L292.831 88.3955L295.409 86.5908L295.141 89.6953H296.859L296.591 86.6016L299.169 88.3955Z" fill="#33404F"/>
<path d="M607.505 52.4668V48.4678H597.881V52.4668H607.505ZM617.202 59H621.626V37.8623H617.217L611.753 41.627V45.7432L616.938 42.1689H617.202V59ZM635.483 59.542C640.332 59.542 643.569 56.4805 643.569 51.998C643.569 47.8525 640.728 44.9082 636.714 44.9082C634.619 44.9082 633.125 45.6846 632.231 46.9736H631.968L632.437 41.5391H642.295V37.8623H629.009L627.954 50.123H631.909C632.642 48.9365 633.887 48.2188 635.527 48.2188C637.769 48.2188 639.351 49.7715 639.351 52.1006C639.351 54.4004 637.783 55.9238 635.513 55.9238C633.506 55.9238 631.953 54.752 631.704 52.9941H627.617C627.749 56.7734 630.884 59.542 635.483 59.542ZM648.359 59H652.988L661.821 41.5391V37.8477H646.704V41.4951H657.368V41.7588L648.359 59ZM665 59.3955C666.582 59.3955 667.593 58.3262 667.593 56.8467C667.593 55.3672 666.582 54.3125 665 54.3125C663.433 54.3125 662.407 55.3672 662.407 56.8467C662.407 58.3262 663.433 59.3955 665 59.3955ZM679.385 59.542C684.116 59.542 687.471 56.4219 687.471 52.0273C687.471 47.9844 684.526 45.0107 680.513 45.0107C678.052 45.0107 676.089 46.1387 675.122 48.1309H674.858C674.771 43.751 676.528 40.9531 679.429 40.9531C681.084 40.9531 682.402 41.832 682.812 43.2236H687.192C686.592 39.6934 683.472 37.3203 679.458 37.3203C673.95 37.3203 670.64 41.5684 670.64 48.585C670.64 51.4854 671.24 53.917 672.412 55.7188C673.862 58.1943 676.323 59.542 679.385 59.542ZM679.341 55.9092C677.173 55.9092 675.518 54.2686 675.518 52.1152C675.518 50.0059 677.144 48.4238 679.355 48.4238C681.567 48.4238 683.179 50.0059 683.179 52.1592C683.179 54.2832 681.509 55.9092 679.341 55.9092ZM701.357 59H705.576V55.3086H708.345V51.6318H705.576V37.8623H699.38C695.674 43.4434 692.92 47.8086 691.016 51.3975V55.3086H701.357V59ZM694.985 51.5293C697.402 47.1494 699.292 44.1904 701.226 41.3047H701.46V51.7637H694.985V51.5293Z" fill="#33404F"/>
<path opacity="0.5" d="M641.809 92.9717C641.809 95.6357 643.731 97.376 646.535 97.376C649.521 97.376 651.326 95.582 651.326 92.4668V81.499H648.92V92.4561C648.92 94.1855 648.05 95.1094 646.514 95.1094C645.139 95.1094 644.204 94.25 644.172 92.9717H641.809ZM658.695 95.249C657.438 95.249 656.525 94.6367 656.525 93.584C656.525 92.5527 657.256 92.0049 658.867 91.8975L661.725 91.7148V92.6924C661.725 94.1426 660.436 95.249 658.695 95.249ZM658.104 97.1934C659.641 97.1934 660.919 96.5273 661.617 95.3564H661.8V97H664.023V89.0078C664.023 86.5371 662.369 85.0762 659.437 85.0762C656.783 85.0762 654.893 86.3652 654.656 88.374H656.891C657.148 87.5469 658.04 87.0742 659.329 87.0742C660.908 87.0742 661.725 87.7725 661.725 89.0078V90.0176L658.556 90.2002C655.773 90.3721 654.205 91.5859 654.205 93.6914C654.205 95.8291 655.849 97.1934 658.104 97.1934ZM667.311 97H669.62V90.1572C669.62 88.3311 670.705 87.1924 672.413 87.1924C674.121 87.1924 674.938 88.127 674.938 90.0068V97H677.247V89.4268C677.247 86.6445 675.808 85.0762 673.197 85.0762C671.436 85.0762 670.275 85.8604 669.706 87.1602H669.534V85.3018H667.311V97ZM690.234 97H692.641V81.499H690.245L686.163 84.3779V86.8379L690.052 84.0879H690.234V97ZM704.285 97H706.605V94.0029H708.743V91.8545H706.605V81.499H703.179C700.418 85.6348 698.108 89.2334 696.723 91.7686V94.0029H704.285V97ZM699.032 91.7578C700.858 88.5889 702.642 85.8389 704.178 83.6152H704.317V91.9082H699.032V91.7578Z" fill="#33404F"/>
</svg>
