<svg width="750" height="132" viewBox="0 0 750 132" fill="none" xmlns="http://www.w3.org/2000/svg">
<rect width="750" height="132" fill="white"/>
<path d="M81 100.167C99.8697 100.167 115.167 84.8698 115.167 66C115.167 47.1303 99.8697 31.8334 81 31.8334C62.1303 31.8334 46.8333 47.1303 46.8333 66C46.8333 84.8698 62.1303 100.167 81 100.167Z" fill="#00DDA3"/>
<path d="M82.4549 54.6976C81.7878 53.6136 80.2122 53.6136 79.5451 54.6976L68.9356 71.938C68.2351 73.0763 69.054 74.5417 70.3905 74.5417H91.6095C92.9459 74.5417 93.7648 73.0763 93.0644 71.938L82.4549 54.6976Z" fill="white"/>
<path d="M143.611 53.126C143.772 57.0664 147.039 59.542 152.078 59.542C157.381 59.542 160.647 56.9346 160.647 52.6719C160.647 49.3906 158.816 47.5596 154.568 46.666L152.02 46.124C149.544 45.5967 148.533 44.8496 148.533 43.5459C148.533 41.9346 149.998 40.9092 152.21 40.9092C154.349 40.9092 155.901 42.0225 156.106 43.6924H160.267C160.135 39.9277 156.839 37.3203 152.181 37.3203C147.303 37.3203 144.095 39.9424 144.095 43.9268C144.095 47.1494 145.984 49.1562 149.837 49.9619L152.591 50.5479C155.184 51.1045 156.238 51.8809 156.238 53.2285C156.238 54.8252 154.612 55.9385 152.312 55.9385C149.822 55.9385 148.094 54.8398 147.889 53.126H143.611ZM170.008 56.041C168.528 56.041 167.488 55.3086 167.488 54.1074C167.488 52.9502 168.382 52.291 170.213 52.1592L173.479 51.9541V53.1406C173.479 54.7812 171.985 56.041 170.008 56.041ZM168.602 59.249C170.696 59.249 172.454 58.3701 173.289 56.8906H173.553V59H177.684V47.9697C177.684 44.5127 175.267 42.4912 170.989 42.4912C166.932 42.4912 164.192 44.3662 163.914 47.3545H167.84C168.191 46.3877 169.217 45.8604 170.755 45.8604C172.513 45.8604 173.479 46.6221 173.479 47.9697V49.2881L169.568 49.5225C165.555 49.7568 163.313 51.4561 163.313 54.3857C163.313 57.3447 165.496 59.249 168.602 59.249ZM182.02 59H186.282V36.6758H182.02V59ZM196.551 56.041C195.071 56.041 194.031 55.3086 194.031 54.1074C194.031 52.9502 194.925 52.291 196.756 52.1592L200.022 51.9541V53.1406C200.022 54.7812 198.528 56.041 196.551 56.041ZM195.145 59.249C197.239 59.249 198.997 58.3701 199.832 56.8906H200.096V59H204.227V47.9697C204.227 44.5127 201.81 42.4912 197.532 42.4912C193.475 42.4912 190.735 44.3662 190.457 47.3545H194.383C194.734 46.3877 195.76 45.8604 197.298 45.8604C199.056 45.8604 200.022 46.6221 200.022 47.9697V49.2881L196.111 49.5225C192.098 49.7568 189.856 51.4561 189.856 54.3857C189.856 57.3447 192.039 59.249 195.145 59.249ZM208.416 59H212.679V50.0498C212.679 47.7793 214.275 46.4023 216.604 46.4023C217.293 46.4023 218.289 46.5342 218.626 46.666V42.7842C218.26 42.6523 217.542 42.5791 216.956 42.5791C214.905 42.5791 213.235 43.8096 212.811 45.4209H212.547V42.8428H208.416V59ZM223.724 64.874C227.752 64.874 229.729 63.4092 231.106 59.249L236.673 42.8428H232.161L228.763 55.0889H228.499L225.101 42.8428H220.398L226.067 59.1025L225.921 59.6885C225.569 60.9189 224.661 61.4316 223.064 61.4316C222.889 61.4316 222.244 61.4316 222.098 61.4023V64.8301C222.273 64.8594 223.562 64.874 223.724 64.874ZM252.229 59V37.8623H247.806V59H252.229ZM256.932 59H261.194V49.6836C261.194 47.5596 262.41 46.168 264.388 46.168C266.409 46.168 267.361 47.3398 267.361 49.5664V59H271.624V48.5557C271.624 44.6885 269.69 42.4912 266.102 42.4912C263.714 42.4912 262.073 43.6191 261.326 45.4355H261.062V42.8428H256.932V59ZM290.066 48.541C289.715 44.8643 287.151 42.4912 282.874 42.4912C277.82 42.4912 274.979 45.5234 274.979 50.8848C274.979 56.3047 277.835 59.3516 282.874 59.3516C287.078 59.3516 289.715 57.0225 290.066 53.4043H286.082C285.76 55.001 284.617 55.8506 282.874 55.8506C280.589 55.8506 279.285 54.1074 279.285 50.8848C279.285 47.7061 280.574 45.9922 282.874 45.9922C284.69 45.9922 285.789 47.0029 286.082 48.541H290.066ZM300.569 59.3516C305.535 59.3516 308.523 56.2021 308.523 50.9141C308.523 45.6699 305.491 42.4912 300.569 42.4912C295.647 42.4912 292.615 45.6846 292.615 50.9141C292.615 56.2021 295.604 59.3516 300.569 59.3516ZM300.569 55.8652C298.284 55.8652 296.995 54.0635 296.995 50.9141C296.995 47.8086 298.299 45.9775 300.569 45.9775C302.825 45.9775 304.144 47.8086 304.144 50.9141C304.144 54.0488 302.84 55.8652 300.569 55.8652ZM312.01 59H316.272V49.2734C316.272 47.4717 317.459 46.168 319.129 46.168C320.799 46.168 321.795 47.1494 321.795 48.8633V59H325.896V49.1123C325.896 47.3984 327.01 46.168 328.738 46.168C330.54 46.168 331.434 47.1201 331.434 49.0391V59H335.696V47.9111C335.696 44.5859 333.689 42.4912 330.467 42.4912C328.211 42.4912 326.351 43.6777 325.604 45.4795H325.34C324.695 43.6045 323.143 42.4912 320.872 42.4912C318.748 42.4912 317.063 43.6338 316.404 45.4795H316.141V42.8428H312.01V59ZM346.829 45.7578C348.821 45.7578 350.11 47.0908 350.198 49.2295H343.313C343.46 47.1348 344.852 45.7578 346.829 45.7578ZM350.286 54.4004C349.832 55.4697 348.675 56.0703 346.99 56.0703C344.764 56.0703 343.357 54.5762 343.299 52.1738V51.9541H354.388V50.6504C354.388 45.5234 351.575 42.4912 346.814 42.4912C342.01 42.4912 339.051 45.7432 339.051 51.002C339.051 56.2461 341.951 59.3516 346.873 59.3516C350.828 59.3516 353.611 57.4473 354.256 54.4004H350.286Z" fill="#33404F"/>
<path opacity="0.5" d="M143.944 81.499V97H146.351V91.7793H149.938C152.979 91.7793 155.127 89.6953 155.127 86.666C155.127 83.5938 153.043 81.499 150.014 81.499H143.944ZM146.351 83.626H149.38C151.496 83.626 152.667 84.7002 152.667 86.666C152.667 88.5889 151.453 89.6631 149.38 89.6631H146.351V83.626ZM158.07 97H160.38V90.168C160.38 88.3955 161.433 87.2031 163.323 87.2031C164.956 87.2031 165.826 88.1484 165.826 90.0176V97H168.136V89.4482C168.136 86.666 166.6 85.0869 164.107 85.0869C162.346 85.0869 161.11 85.8711 160.541 87.1816H160.358V80.7363H158.07V97ZM175.215 95.249C173.958 95.249 173.045 94.6367 173.045 93.584C173.045 92.5527 173.775 92.0049 175.387 91.8975L178.244 91.7148V92.6924C178.244 94.1426 176.955 95.249 175.215 95.249ZM174.624 97.1934C176.16 97.1934 177.438 96.5273 178.137 95.3564H178.319V97H180.543V89.0078C180.543 86.5371 178.889 85.0762 175.956 85.0762C173.303 85.0762 171.412 86.3652 171.176 88.374H173.41C173.668 87.5469 174.56 87.0742 175.849 87.0742C177.428 87.0742 178.244 87.7725 178.244 89.0078V90.0176L175.075 90.2002C172.293 90.3721 170.725 91.5859 170.725 93.6914C170.725 95.8291 172.368 97.1934 174.624 97.1934ZM183.83 97H186.14V90.0928C186.14 88.4492 187.375 87.3428 189.126 87.3428C189.534 87.3428 190.222 87.418 190.415 87.4824V85.2051C190.168 85.1406 189.728 85.1084 189.384 85.1084C187.858 85.1084 186.559 85.9463 186.226 87.0957H186.054V85.3018H183.83V97ZM196.377 95.249C195.12 95.249 194.207 94.6367 194.207 93.584C194.207 92.5527 194.938 92.0049 196.549 91.8975L199.406 91.7148V92.6924C199.406 94.1426 198.117 95.249 196.377 95.249ZM195.786 97.1934C197.322 97.1934 198.601 96.5273 199.299 95.3564H199.481V97H201.705V89.0078C201.705 86.5371 200.051 85.0762 197.118 85.0762C194.465 85.0762 192.574 86.3652 192.338 88.374H194.572C194.83 87.5469 195.722 87.0742 197.011 87.0742C198.59 87.0742 199.406 87.7725 199.406 89.0078V90.0176L196.237 90.2002C193.455 90.3721 191.887 91.5859 191.887 93.6914C191.887 95.8291 193.53 97.1934 195.786 97.1934ZM209.934 97.2256C213.35 97.2256 215.444 94.9375 215.444 91.1455C215.444 87.375 213.339 85.0762 209.934 85.0762C206.518 85.0762 204.412 87.375 204.412 91.1455C204.412 94.9375 206.507 97.2256 209.934 97.2256ZM209.934 95.1738C207.925 95.1738 206.797 93.7021 206.797 91.1455C206.797 88.6104 207.925 87.1279 209.934 87.1279C211.932 87.1279 213.07 88.6104 213.07 91.1455C213.07 93.6914 211.932 95.1738 209.934 95.1738ZM217.958 88.6104C217.958 90.3506 218.989 91.3496 221.213 91.876L223.254 92.3486C224.425 92.6279 224.973 93.0791 224.973 93.7773C224.973 94.7119 223.952 95.3564 222.513 95.3564C221.116 95.3564 220.257 94.7979 219.967 93.8955H217.657C217.861 95.9688 219.677 97.2256 222.459 97.2256C225.252 97.2256 227.304 95.7539 227.304 93.5518C227.304 91.833 226.262 90.877 224.038 90.3613L222.094 89.9102C220.826 89.6201 220.235 89.1797 220.235 88.4814C220.235 87.5684 221.213 86.9561 222.502 86.9561C223.812 86.9561 224.65 87.5039 224.865 88.3633H227.078C226.853 86.3008 225.134 85.0762 222.502 85.0762C219.859 85.0762 217.958 86.5371 217.958 88.6104ZM242.708 97V83.6904H247.574V81.499H235.425V83.6904H240.302V97H242.708ZM252.956 87.042C254.664 87.042 255.781 88.2344 255.835 90.0713H249.927C250.056 88.2451 251.248 87.042 252.956 87.042ZM255.824 93.8418C255.395 94.7549 254.438 95.2598 253.042 95.2598C251.194 95.2598 250.002 93.96 249.927 91.9082V91.7793H258.188V90.9736C258.188 87.2998 256.222 85.0762 252.967 85.0762C249.669 85.0762 247.574 87.4502 247.574 91.1885C247.574 94.9268 249.626 97.2256 252.978 97.2256C255.652 97.2256 257.521 95.9365 258.048 93.8418H255.824ZM270.863 89.126C270.562 86.7842 268.79 85.0762 265.857 85.0762C262.452 85.0762 260.379 87.3643 260.379 91.1133C260.379 94.9268 262.463 97.2256 265.868 97.2256C268.758 97.2256 270.562 95.5928 270.863 93.2402H268.618C268.317 94.4971 267.318 95.1631 265.857 95.1631C263.935 95.1631 262.742 93.6484 262.742 91.1133C262.742 88.6211 263.924 87.1387 265.857 87.1387C267.404 87.1387 268.35 87.9873 268.618 89.126H270.863ZM273.613 97H275.923V90.168C275.923 88.3955 276.976 87.2031 278.866 87.2031C280.499 87.2031 281.369 88.1484 281.369 90.0176V97H283.679V89.4482C283.679 86.666 282.143 85.0869 279.65 85.0869C277.889 85.0869 276.653 85.8711 276.084 87.1816H275.901V80.7363H273.613V97ZM288.416 101.05L290.199 94.6797H287.782L286.783 101.05H288.416ZM302.563 97V81.499H300.157V97H302.563ZM306.184 97H308.493V90.1572C308.493 88.3311 309.578 87.1924 311.286 87.1924C312.994 87.1924 313.811 88.127 313.811 90.0068V97H316.12V89.4268C316.12 86.6445 314.681 85.0762 312.07 85.0762C310.309 85.0762 309.148 85.8604 308.579 87.1602H308.407V85.3018H306.184V97ZM329.279 89.126C328.979 86.7842 327.206 85.0762 324.273 85.0762C320.868 85.0762 318.795 87.3643 318.795 91.1133C318.795 94.9268 320.879 97.2256 324.284 97.2256C327.174 97.2256 328.979 95.5928 329.279 93.2402H327.034C326.733 94.4971 325.734 95.1631 324.273 95.1631C322.351 95.1631 321.158 93.6484 321.158 91.1133C321.158 88.6211 322.34 87.1387 324.273 87.1387C325.82 87.1387 326.766 87.9873 327.034 89.126H329.279Z" fill="#33404F"/>
<path d="M563.12 52.335H569.17V48.5557H563.12V42.5791H559.385V48.5557H553.35V52.335H559.385V58.3262H563.12V52.335ZM578.926 49.8301H581.548C583.921 49.8301 585.371 50.9727 585.371 52.8184C585.371 54.6201 583.833 55.8652 581.621 55.8652C579.351 55.8652 577.842 54.7373 577.71 52.9502H573.477C573.667 56.9346 576.86 59.542 581.577 59.542C586.396 59.542 589.883 56.8613 589.883 53.1553C589.883 50.3721 588.066 48.4385 585.166 48.1162V47.8525C587.524 47.3691 589.062 45.4648 589.062 43.0186C589.062 39.6934 585.942 37.3203 581.606 37.3203C576.992 37.3203 574.019 39.8398 573.872 43.8389H577.959C578.076 42.0078 579.438 40.8506 581.489 40.8506C583.555 40.8506 584.873 41.9346 584.873 43.6338C584.873 45.3623 583.511 46.5342 581.504 46.5342H578.926V49.8301ZM595.449 64.7275L598.115 55.5723H593.94L592.593 64.7275H595.449ZM610.098 59.542C615.181 59.542 618.652 57.0225 618.652 53.3164C618.652 50.6211 616.792 48.4824 613.979 47.9551V47.6914C616.294 47.1494 617.788 45.3477 617.788 43.0918C617.788 39.7227 614.595 37.3203 610.112 37.3203C605.615 37.3203 602.422 39.7227 602.422 43.0918C602.422 45.333 603.931 47.1641 606.23 47.6914V47.9551C603.403 48.585 601.572 50.709 601.572 53.3604C601.572 57.0371 605.015 59.542 610.098 59.542ZM610.098 56.2021C607.783 56.2021 606.172 54.8691 606.172 52.9502C606.172 51.0166 607.783 49.6836 610.098 49.6836C612.427 49.6836 614.038 51.0166 614.038 52.9502C614.038 54.8691 612.427 56.2021 610.098 56.2021ZM610.098 46.417C608.149 46.417 606.787 45.2158 606.787 43.5166C606.787 41.8027 608.135 40.6016 610.098 40.6016C612.061 40.6016 613.423 41.8027 613.423 43.5166C613.423 45.2158 612.061 46.417 610.098 46.417ZM630.649 59.542C635.879 59.542 639.043 55.3965 639.043 48.4092C639.043 41.3926 635.835 37.3203 630.649 37.3203C625.449 37.3203 622.256 41.3926 622.256 48.3945C622.256 55.4111 625.42 59.542 630.649 59.542ZM630.649 55.9385C628.232 55.9385 626.738 53.3311 626.738 48.3945C626.738 43.4873 628.247 40.9385 630.649 40.9385C633.066 40.9385 634.561 43.4727 634.561 48.3945C634.561 53.3457 633.081 55.9385 630.649 55.9385ZM651.187 59.542C656.416 59.542 659.58 55.3965 659.58 48.4092C659.58 41.3926 656.372 37.3203 651.187 37.3203C645.986 37.3203 642.793 41.3926 642.793 48.3945C642.793 55.4111 645.957 59.542 651.187 59.542ZM651.187 55.9385C648.77 55.9385 647.275 53.3311 647.275 48.3945C647.275 43.4873 648.784 40.9385 651.187 40.9385C653.604 40.9385 655.098 43.4727 655.098 48.3945C655.098 53.3457 653.618 55.9385 651.187 55.9385ZM665.117 59.3955C666.699 59.3955 667.71 58.3262 667.71 56.8467C667.71 55.3672 666.699 54.3125 665.117 54.3125C663.55 54.3125 662.524 55.3672 662.524 56.8467C662.524 58.3262 663.55 59.3955 665.117 59.3955ZM679.194 59.542C684.424 59.542 687.588 55.3965 687.588 48.4092C687.588 41.3926 684.38 37.3203 679.194 37.3203C673.994 37.3203 670.801 41.3926 670.801 48.3945C670.801 55.4111 673.965 59.542 679.194 59.542ZM679.194 55.9385C676.777 55.9385 675.283 53.3311 675.283 48.3945C675.283 43.4873 676.792 40.9385 679.194 40.9385C681.611 40.9385 683.105 43.4727 683.105 48.3945C683.105 53.3457 681.626 55.9385 679.194 55.9385ZM699.731 59.542C704.961 59.542 708.125 55.3965 708.125 48.4092C708.125 41.3926 704.917 37.3203 699.731 37.3203C694.531 37.3203 691.338 41.3926 691.338 48.3945C691.338 55.4111 694.502 59.542 699.731 59.542ZM699.731 55.9385C697.314 55.9385 695.82 53.3311 695.82 48.3945C695.82 43.4873 697.329 40.9385 699.731 40.9385C702.148 40.9385 703.643 43.4727 703.643 48.3945C703.643 53.3457 702.163 55.9385 699.731 55.9385Z" fill="#33404F"/>
<path opacity="0.5" d="M642.195 92.9717C642.195 95.6357 644.118 97.376 646.922 97.376C649.908 97.376 651.713 95.582 651.713 92.4668V81.499H649.307V92.4561C649.307 94.1855 648.437 95.1094 646.9 95.1094C645.525 95.1094 644.591 94.25 644.559 92.9717H642.195ZM659.082 95.249C657.825 95.249 656.912 94.6367 656.912 93.584C656.912 92.5527 657.643 92.0049 659.254 91.8975L662.111 91.7148V92.6924C662.111 94.1426 660.822 95.249 659.082 95.249ZM658.491 97.1934C660.027 97.1934 661.306 96.5273 662.004 95.3564H662.187V97H664.41V89.0078C664.41 86.5371 662.756 85.0762 659.823 85.0762C657.17 85.0762 655.279 86.3652 655.043 88.374H657.277C657.535 87.5469 658.427 87.0742 659.716 87.0742C661.295 87.0742 662.111 87.7725 662.111 89.0078V90.0176L658.942 90.2002C656.16 90.3721 654.592 91.5859 654.592 93.6914C654.592 95.8291 656.235 97.1934 658.491 97.1934ZM667.697 97H670.007V90.1572C670.007 88.3311 671.092 87.1924 672.8 87.1924C674.508 87.1924 675.324 88.127 675.324 90.0068V97H677.634V89.4268C677.634 86.6445 676.194 85.0762 673.584 85.0762C671.822 85.0762 670.662 85.8604 670.093 87.1602H669.921V85.3018H667.697V97ZM690.621 97H693.027V81.499H690.632L686.55 84.3779V86.8379L690.438 84.0879H690.621V97ZM700.923 90.0391H702.878C704.908 90.0391 706.165 91.0381 706.165 92.6387C706.165 94.1641 704.833 95.249 702.942 95.249C701.062 95.249 699.773 94.293 699.623 92.7891H697.313C697.453 95.5605 699.688 97.376 702.942 97.376C706.176 97.376 708.625 95.3994 708.625 92.7676C708.625 90.6943 707.336 89.2441 705.22 88.9971V88.8145C706.928 88.4277 707.991 87.0527 707.991 85.2266C707.991 82.8955 705.778 81.123 702.899 81.123C699.795 81.123 697.775 82.8525 697.614 85.6562H699.902C700.031 84.1309 701.138 83.1963 702.824 83.1963C704.511 83.1963 705.617 84.1416 705.617 85.5811C705.617 87.042 704.468 88.0518 702.803 88.0518H700.923V90.0391Z" fill="#33404F"/>
</svg>
