<svg width="72" height="98" viewBox="0 0 72 98" fill="none" xmlns="http://www.w3.org/2000/svg">
<g filter="url(#filter0_d_207_160)">
<path d="M61.3333 32.6667C61.3333 39.2933 58.7333 45.3067 54.4667 49.72C50 54.4133 43.6667 57.3333 36.6667 57.3333C29.6667 57.3333 23.3333 54.4133 18.8667 49.72C14.6 45.3067 12 39.2933 12 32.6667C12 19.04 23.04 8 36.6667 8C50.2933 8 61.3333 19.04 61.3333 32.6667Z" stroke="#00DDA3" stroke-width="4" stroke-miterlimit="10"/>
<path d="M36.6667 30.6667C41.4531 30.6667 45.3333 26.7865 45.3333 22C45.3333 17.2136 41.4531 13.3334 36.6667 13.3334C31.8802 13.3334 28 17.2136 28 22C28 26.7865 31.8802 30.6667 36.6667 30.6667Z" stroke="#00DDA3" stroke-width="4" stroke-miterlimit="10"/>
<path d="M54.4667 49.72C50 54.4133 43.6667 57.3333 36.6667 57.3333C29.6667 57.3333 23.3334 54.4133 18.8667 49.72C21.24 42.1466 28.32 36.6666 36.6667 36.6666C45.0134 36.6666 52.0934 42.1466 54.4667 49.72Z" stroke="#00DDA3" stroke-width="4" stroke-miterlimit="10"/>
<circle cx="36" cy="82" r="8" fill="#00DDA3"/>
</g>
<defs>
<filter id="filter0_d_207_160" x="0" y="0" width="72" height="98" filterUnits="userSpaceOnUse" color-interpolation-filters="sRGB">
<feFlood flood-opacity="0" result="BackgroundImageFix"/>
<feColorMatrix in="SourceAlpha" type="matrix" values="0 0 0 0 0 0 0 0 0 0 0 0 0 0 0 0 0 0 127 0" result="hardAlpha"/>
<feOffset dy="4"/>
<feGaussianBlur stdDeviation="2"/>
<feComposite in2="hardAlpha" operator="out"/>
<feColorMatrix type="matrix" values="0 0 0 0 0 0 0 0 0 0 0 0 0 0 0 0 0 0 0.25 0"/>
<feBlend mode="normal" in2="BackgroundImageFix" result="effect1_dropShadow_207_160"/>
<feBlend mode="normal" in="SourceGraphic" in2="effect1_dropShadow_207_160" result="shape"/>
</filter>
</defs>
</svg>
