<svg width="750" height="132" viewBox="0 0 750 132" fill="none" xmlns="http://www.w3.org/2000/svg">
<rect width="750" height="132" fill="white"/>
<path d="M81 100.167C99.8697 100.167 115.167 84.8697 115.167 66C115.167 47.1302 99.8697 31.8333 81 31.8333C62.1303 31.8333 46.8333 47.1302 46.8333 66C46.8333 84.8697 62.1303 100.167 81 100.167Z" fill="#00DDA3"/>
<path d="M82.4549 54.6975C81.7878 53.6135 80.2122 53.6136 79.5451 54.6976L68.9356 71.938C68.2351 73.0762 69.054 74.5416 70.3905 74.5416H91.6095C92.9459 74.5416 93.7648 73.0762 93.0644 71.938L82.4549 54.6975Z" fill="white"/>
<path d="M148.987 59V50.7676H157.586V47.1494H148.987V41.6416H158.406V37.8623H144.563V59H148.987ZM169.231 59.3516C174.197 59.3516 177.186 56.2021 177.186 50.9141C177.186 45.6699 174.153 42.4912 169.231 42.4912C164.31 42.4912 161.277 45.6846 161.277 50.9141C161.277 56.2021 164.266 59.3516 169.231 59.3516ZM169.231 55.8652C166.946 55.8652 165.657 54.0635 165.657 50.9141C165.657 47.8086 166.961 45.9775 169.231 45.9775C171.487 45.9775 172.806 47.8086 172.806 50.9141C172.806 54.0488 171.502 55.8652 169.231 55.8652ZM187.835 59.3516C192.801 59.3516 195.789 56.2021 195.789 50.9141C195.789 45.6699 192.757 42.4912 187.835 42.4912C182.913 42.4912 179.881 45.6846 179.881 50.9141C179.881 56.2021 182.869 59.3516 187.835 59.3516ZM187.835 55.8652C185.55 55.8652 184.261 54.0635 184.261 50.9141C184.261 47.8086 185.564 45.9775 187.835 45.9775C190.091 45.9775 191.409 47.8086 191.409 50.9141C191.409 54.0488 190.105 55.8652 187.835 55.8652ZM205.062 59.249C207.303 59.249 209.134 58.209 209.998 56.4658H210.262V59H214.393V36.6758H210.13V45.4209H209.881C209.046 43.6338 207.244 42.5791 205.062 42.5791C201.004 42.5791 198.484 45.7578 198.484 50.8994C198.484 56.0557 200.989 59.249 205.062 59.249ZM206.512 46.1533C208.782 46.1533 210.174 47.9844 210.174 50.9287C210.174 53.8877 208.797 55.6895 206.512 55.6895C204.227 55.6895 202.864 53.9023 202.864 50.9141C202.864 47.9551 204.241 46.1533 206.512 46.1533ZM241.58 59H246.37L242.444 54.8691C243.587 53.3311 244.246 51.0898 244.246 48.5557V47.2373H240.657V48.2773C240.657 50.0352 240.408 51.251 239.91 52.1299L235.853 47.9258C238.812 46.3291 240.159 44.5713 240.159 42.3887C240.159 39.5322 237.713 37.54 234.256 37.54C230.784 37.54 228.235 39.6201 228.235 42.4766C228.235 44.0293 228.924 45.3477 230.857 47.3252C230.74 47.3838 230.008 47.8086 229.92 47.8379C227.195 49.332 225.979 51.0605 225.979 53.4775C225.979 57.0811 228.88 59.4102 233.377 59.4102C235.97 59.4102 238.387 58.6191 239.954 57.2861L241.58 59ZM232.249 49.9473C232.41 49.8594 232.703 49.7129 232.864 49.6543L237.713 54.7666C236.878 55.6455 235.354 56.2021 233.816 56.2021C231.531 56.2021 229.979 54.957 229.979 53.1113C229.979 51.8223 230.711 50.7822 232.249 49.9473ZM233.875 45.8604C232.425 44.4834 231.912 43.6777 231.912 42.7109C231.912 41.3926 232.894 40.4697 234.271 40.4697C235.647 40.4697 236.6 41.3779 236.6 42.7109C236.6 43.9561 235.809 44.8936 233.875 45.8604ZM266.556 59C271.067 59 273.865 56.6562 273.865 52.9502C273.865 50.2256 271.829 48.1162 269.031 47.9111V47.6475C271.199 47.3252 272.854 45.377 272.854 43.1357C272.854 39.8691 270.408 37.8623 266.307 37.8623H257.063V59H266.556ZM261.487 41.2461H265.179C267.288 41.2461 268.504 42.2568 268.504 43.9414C268.504 45.6406 267.2 46.6221 264.812 46.6221H261.487V41.2461ZM261.487 55.6162V49.6104H265.325C267.933 49.6104 269.354 50.6357 269.354 52.5693C269.354 54.5469 267.977 55.6162 265.428 55.6162H261.487ZM284.427 45.7578C286.419 45.7578 287.708 47.0908 287.796 49.2295H280.911C281.058 47.1348 282.449 45.7578 284.427 45.7578ZM287.884 54.4004C287.43 55.4697 286.272 56.0703 284.588 56.0703C282.361 56.0703 280.955 54.5762 280.896 52.1738V51.9541H291.985V50.6504C291.985 45.5234 289.173 42.4912 284.412 42.4912C279.607 42.4912 276.648 45.7432 276.648 51.002C276.648 56.2461 279.549 59.3516 284.471 59.3516C288.426 59.3516 291.209 57.4473 291.854 54.4004H287.884ZM309.651 42.8428H305.154L301.844 54.8838H301.58L298.24 42.8428H293.655L299.266 59H304.07L309.651 42.8428ZM318.851 45.7578C320.843 45.7578 322.132 47.0908 322.22 49.2295H315.335C315.481 47.1348 316.873 45.7578 318.851 45.7578ZM322.308 54.4004C321.854 55.4697 320.696 56.0703 319.012 56.0703C316.785 56.0703 315.379 54.5762 315.32 52.1738V51.9541H326.409V50.6504C326.409 45.5234 323.597 42.4912 318.836 42.4912C314.031 42.4912 311.072 45.7432 311.072 51.002C311.072 56.2461 313.973 59.3516 318.895 59.3516C322.85 59.3516 325.633 57.4473 326.277 54.4004H322.308ZM329.91 59H334.173V50.0498C334.173 47.7793 335.77 46.4023 338.099 46.4023C338.787 46.4023 339.783 46.5342 340.12 46.666V42.7842C339.754 42.6523 339.036 42.5791 338.45 42.5791C336.399 42.5791 334.729 43.8096 334.305 45.4209H334.041V42.8428H329.91V59ZM348.514 56.041C347.034 56.041 345.994 55.3086 345.994 54.1074C345.994 52.9502 346.888 52.291 348.719 52.1592L351.985 51.9541V53.1406C351.985 54.7812 350.491 56.041 348.514 56.041ZM347.107 59.249C349.202 59.249 350.96 58.3701 351.795 56.8906H352.059V59H356.189V47.9697C356.189 44.5127 353.772 42.4912 349.495 42.4912C345.438 42.4912 342.698 44.3662 342.42 47.3545H346.346C346.697 46.3877 347.723 45.8604 349.261 45.8604C351.019 45.8604 351.985 46.6221 351.985 47.9697V49.2881L348.074 49.5225C344.061 49.7568 341.819 51.4561 341.819 54.3857C341.819 57.3447 344.002 59.249 347.107 59.249ZM367.557 55.3965C365.242 55.3965 363.924 53.624 363.924 50.7676C363.924 47.9404 365.257 46.1533 367.557 46.1533C369.856 46.1533 371.248 47.9404 371.248 50.7822C371.248 53.624 369.871 55.3965 367.557 55.3965ZM367.498 65.123C372.376 65.123 375.467 62.7354 375.467 58.9414V42.8428H371.336V45.4355H371.072C370.208 43.6631 368.348 42.5791 366.165 42.5791C362.063 42.5791 359.544 45.7725 359.544 50.7822C359.544 55.6455 362.049 58.7656 366.077 58.7656C368.348 58.7656 370.047 57.8574 370.94 56.1582H371.204V59.1465C371.204 60.9629 369.871 62.0176 367.586 62.0176C365.74 62.0176 364.539 61.3877 364.319 60.3916H360.101C360.364 63.2334 363.206 65.123 367.498 65.123ZM386.731 45.7578C388.724 45.7578 390.013 47.0908 390.101 49.2295H383.216C383.362 47.1348 384.754 45.7578 386.731 45.7578ZM390.188 54.4004C389.734 55.4697 388.577 56.0703 386.893 56.0703C384.666 56.0703 383.26 54.5762 383.201 52.1738V51.9541H394.29V50.6504C394.29 45.5234 391.478 42.4912 386.717 42.4912C381.912 42.4912 378.953 45.7432 378.953 51.002C378.953 56.2461 381.854 59.3516 386.775 59.3516C390.73 59.3516 393.514 57.4473 394.158 54.4004H390.188Z" fill="#33404F"/>
<path opacity="0.5" d="M146.351 97V90.5762H153.011V88.4492H146.351V83.6904H153.623V81.499H143.944V97H146.351ZM156.523 97H158.822V85.3018H156.523V97ZM157.673 83.25C158.532 83.25 159.166 82.6377 159.166 81.8428C159.166 81.0371 158.532 80.4248 157.673 80.4248C156.813 80.4248 156.18 81.0371 156.18 81.8428C156.18 82.6377 156.813 83.25 157.673 83.25ZM172.121 85.3018H169.672L166.771 94.5293H166.589L163.678 85.3018H161.207L165.429 97H167.91L172.121 85.3018ZM178.813 87.042C180.521 87.042 181.639 88.2344 181.692 90.0713H175.784C175.913 88.2451 177.105 87.042 178.813 87.042ZM181.682 93.8418C181.252 94.7549 180.296 95.2598 178.899 95.2598C177.052 95.2598 175.859 93.96 175.784 91.9082V91.7793H184.045V90.9736C184.045 87.2998 182.079 85.0762 178.824 85.0762C175.526 85.0762 173.432 87.4502 173.432 91.1885C173.432 94.9268 175.483 97.2256 178.835 97.2256C181.51 97.2256 183.379 95.9365 183.905 93.8418H181.682ZM202.769 94.7871H195.507V81.499H193.101V97H202.769V94.7871ZM209.955 97.2256C213.371 97.2256 215.466 94.9375 215.466 91.1455C215.466 87.375 213.36 85.0762 209.955 85.0762C206.539 85.0762 204.434 87.375 204.434 91.1455C204.434 94.9375 206.528 97.2256 209.955 97.2256ZM209.955 95.1738C207.946 95.1738 206.818 93.7021 206.818 91.1455C206.818 88.6104 207.946 87.1279 209.955 87.1279C211.953 87.1279 213.092 88.6104 213.092 91.1455C213.092 93.6914 211.953 95.1738 209.955 95.1738ZM222.523 97.1934C224.135 97.1934 225.499 96.4307 226.197 95.1523H226.38V97H228.593V80.7363H226.283V87.1602H226.111C225.478 85.8711 224.124 85.1084 222.523 85.1084C219.569 85.1084 217.668 87.4502 217.668 91.1455C217.668 94.8516 219.548 97.1934 222.523 97.1934ZM223.179 87.1816C225.112 87.1816 226.326 88.7178 226.326 91.1562C226.326 93.6055 225.123 95.1201 223.179 95.1201C221.224 95.1201 220.053 93.627 220.053 91.1455C220.053 88.6855 221.234 87.1816 223.179 87.1816ZM231.794 88.6104C231.794 90.3506 232.825 91.3496 235.049 91.876L237.09 92.3486C238.261 92.6279 238.809 93.0791 238.809 93.7773C238.809 94.7119 237.788 95.3564 236.349 95.3564C234.952 95.3564 234.093 94.7979 233.803 93.8955H231.493C231.697 95.9688 233.513 97.2256 236.295 97.2256C239.088 97.2256 241.14 95.7539 241.14 93.5518C241.14 91.833 240.098 90.877 237.874 90.3613L235.93 89.9102C234.662 89.6201 234.071 89.1797 234.071 88.4814C234.071 87.5684 235.049 86.9561 236.338 86.9561C237.648 86.9561 238.486 87.5039 238.701 88.3633H240.914C240.688 86.3008 238.97 85.0762 236.338 85.0762C233.695 85.0762 231.794 86.5371 231.794 88.6104Z" fill="#33404F"/>
<path d="M622.827 52.335H628.877V48.5557H622.827V42.5791H619.092V48.5557H613.057V52.335H619.092V58.3262H622.827V52.335ZM633.228 44.1904V44.2637H637.329V44.1758C637.329 42.2275 638.735 40.8799 640.786 40.8799C642.72 40.8799 644.097 42.0811 644.097 43.7803C644.097 45.1572 643.35 46.2559 640.376 49.1562L633.477 55.9092V59H648.726V55.3232H639.468V55.0596L643.511 51.207C647.173 47.7646 648.418 45.7871 648.418 43.4873C648.418 39.8545 645.342 37.3203 640.933 37.3203C636.362 37.3203 633.228 40.1035 633.228 44.1904ZM661.045 59.542C666.128 59.542 669.6 57.0225 669.6 53.3164C669.6 50.6211 667.739 48.4824 664.927 47.9551V47.6914C667.241 47.1494 668.735 45.3477 668.735 43.0918C668.735 39.7227 665.542 37.3203 661.06 37.3203C656.562 37.3203 653.369 39.7227 653.369 43.0918C653.369 45.333 654.878 47.1641 657.178 47.6914V47.9551C654.351 48.585 652.52 50.709 652.52 53.3604C652.52 57.0371 655.962 59.542 661.045 59.542ZM661.045 56.2021C658.73 56.2021 657.119 54.8691 657.119 52.9502C657.119 51.0166 658.73 49.6836 661.045 49.6836C663.374 49.6836 664.985 51.0166 664.985 52.9502C664.985 54.8691 663.374 56.2021 661.045 56.2021ZM661.045 46.417C659.097 46.417 657.734 45.2158 657.734 43.5166C657.734 41.8027 659.082 40.6016 661.045 40.6016C663.008 40.6016 664.37 41.8027 664.37 43.5166C664.37 45.2158 663.008 46.417 661.045 46.417ZM675.518 59.3955C677.1 59.3955 678.11 58.3262 678.11 56.8467C678.11 55.3672 677.1 54.3125 675.518 54.3125C673.95 54.3125 672.925 55.3672 672.925 56.8467C672.925 58.3262 673.95 59.3955 675.518 59.3955ZM686.431 59H690.854V37.8623H686.445L680.981 41.627V45.7432L686.167 42.1689H686.431V59ZM701.841 59H706.265V37.8623H701.855L696.392 41.627V45.7432L701.577 42.1689H701.841V59Z" fill="#33404F"/>
<path opacity="0.5" d="M644.677 97V90.5762H651.337V88.4492H644.677V83.6904H651.949V81.499H642.271V97H644.677ZM659.608 87.042C661.316 87.042 662.434 88.2344 662.487 90.0713H656.579C656.708 88.2451 657.9 87.042 659.608 87.042ZM662.477 93.8418C662.047 94.7549 661.091 95.2598 659.694 95.2598C657.847 95.2598 656.654 93.96 656.579 91.9082V91.7793H664.84V90.9736C664.84 87.2998 662.874 85.0762 659.619 85.0762C656.321 85.0762 654.227 87.4502 654.227 91.1885C654.227 94.9268 656.278 97.2256 659.63 97.2256C662.305 97.2256 664.174 95.9365 664.7 93.8418H662.477ZM673.81 97.1934C676.764 97.1934 678.644 94.8516 678.644 91.1455C678.644 87.4287 676.774 85.1084 673.81 85.1084C672.209 85.1084 670.834 85.8818 670.211 87.1602H670.028V80.7363H667.719V97H669.942V95.1523H670.114C670.812 96.4414 672.177 97.1934 673.81 97.1934ZM673.144 87.1816C675.099 87.1816 676.27 88.6855 676.27 91.1455C676.27 93.627 675.099 95.1201 673.144 95.1201C671.199 95.1201 669.996 93.6055 669.985 91.1562C669.996 88.707 671.21 87.1816 673.144 87.1816ZM687.312 85.9785V86.0107H689.59V85.9785C689.59 84.3242 690.739 83.207 692.447 83.207C694.048 83.207 695.262 84.2705 695.262 85.6885C695.262 86.8271 694.757 87.6436 692.684 89.8027L687.441 95.2598V97H697.883V94.8408H690.793V94.6582L694.241 91.167C696.841 88.5352 697.636 87.1924 697.636 85.5488C697.636 82.9922 695.466 81.123 692.522 81.123C689.472 81.123 687.312 83.1211 687.312 85.9785ZM704.758 97H707.164V81.499H704.769L700.687 84.3779V86.8379L704.575 84.0879H704.758V97Z" fill="#33404F"/>
</svg>
